<?xml version="1.0" encoding="UTF-8"?>
<svg width="1200pt" height="1200pt" version="1.1" viewBox="0 0 1200 1200" xmlns="http://www.w3.org/2000/svg">
 <g>
  <path d="m453.32 468.56c-26.812 24.797-26.484 45.469-17.25 56.578 4.3125 5.1562 11.906 11.391 23.25 11.391-3.2344 14.719-0.14062 28.172 9.6094 35.953 4.4062 3.5625 9.1406 5.1094 14.109 5.1094 11.156 0 23.578-8.0156 36.328-19.828 1.0781 3.1875 2.8125 5.9531 5.25 8.1094 2.25 2.0156 6.0469 4.2188 11.766 4.2188 1.0312 0 2.1094-0.046875 3.2344-0.23438 17.109-2.2969 39.984-21.75 58.312-49.641 20.109-30.562 76.125-82.219 89.625-94.453 11.203-0.75 23.109-1.2656 35.719-1.4062-19.641 13.266-36.562 30.422-44.156 49.828-6.0938 15.656-5.3438 31.125 2.25 44.766 1.5938 2.9062 4.3594 4.9688 7.5938 5.7188s6.6094 0.09375 9.375-1.7812c3.2344-2.25 6.7031-4.9688 10.406-7.8281 17.109-13.219 40.5-31.359 75.75-36.094 47.438-6.375 111.09-30.984 134.44-79.312 19.406-40.125 27.609-49.031 72.938-79.219 25.641-17.109 56.484-35.484 79.828-49.031 10.922 7.2656 22.641 11.062 34.219 11.062 6.4688 0 12.844-1.1719 19.031-3.5156 19.969-7.6406 34.031-27 37.641-51.844 6.9844-47.812-31.594-129.05-90.047-158.26-30.234-15.094-60.938-12.047-78.281 7.875-12.047 13.875-18.281 38.156-2.5781 66.844-68.203 61.312-122.11 103.78-145.03 114.19-24.844 11.297-69.562 19.734-105.52 26.531-34.125 6.4688-53.859 10.359-63.094 15.469-19.594 10.875-114.42 73.875-143.48 95.859-28.125 21.422-77.859 69.656-81.234 72.938zm82.5 36.891c-1.3125 1.5-2.5781 2.9531-3.9844 4.5938-35.203 41.344-46.031 44.109-48.281 44.109-3.2812-2.8594-3-16.078 6.9375-30.047 4.5469-3.3281 9.2812-7.3125 14.391-12.188 13.688-13.031 39.375-30.984 73.922-51.703-14.625 14.484-30.047 30.422-42.984 45.234zm42.609 1.9219c-14.672 22.359-29.016 33.422-36.844 37.453 1.0312-6 4.5-15.516 11.812-23.906 31.219-35.719 78.844-79.688 90-89.812 1.6875-0.32812 3.4219-0.60938 5.1562-0.9375-23.062 22.031-55.031 54.281-70.125 77.203zm517.87-249.89h-0.09375c0.09375-0.046875 0.14062-0.09375 0.23437-0.14062 0 0.09375-0.09375 0.14062-0.14062 0.14062zm-84.234-165.37c10.078-11.578 29.719-12.469 50.109-2.25 45 22.5 78.891 86.672 77.906 126.74-0.46875-37.875-33.891-96.234-77.906-117-20.391-9.6094-40.031-8.7656-50.109 2.1562-3.1875 3.4688-5.1094 7.6875-5.8125 12.375-1.0781-8.625 0.79688-16.266 5.8125-22.031zm-322.5 228.14c6.375-3.5625 32.766-8.5312 56.062-12.938 37.172-7.0312 83.438-15.797 110.86-28.219 35.859-16.312 114.56-85.125 158.29-124.69 5.2969-4.7812 9.5156-8.6719 12.375-11.25 10.125 1.7812 34.547 8.5312 48.703 32.766 14.672 25.078 10.219 51.891 7.7812 61.781-3.7031 2.0625-9.6094 5.3906-16.922 9.6094-24.188 13.922-59.062 34.547-87.75 53.672-45.656 30.422-58.641 42.234-81 88.5-18.094 37.406-71.531 60.234-116.44 66.281-38.438 5.1562-64.781 23.719-82.875 37.594 0.1875-3.375 0.98438-6.9375 2.4375-10.641 8.6719-22.219 38.344-45.703 72.609-57.609 5.3438 0.1875 10.875 0.46875 16.547 0.75 6.4219 0.32812 12-4.5938 12.328-11.062s-4.5938-12-11.062-12.328c-6.4688-0.32812-12.75-0.60937-18.844-0.84375h-0.5625c-33.469-1.2656-63.797-0.89062-90.141 1.0781-17.578 1.3125-33.141 3.3281-46.266 6-19.875 3.9375-28.688 8.2031-31.547 9.7969l-2.3438 1.3125c-54.469 30.469-93.609 56.438-113.16 75.094-4.8281 4.5938-9.3281 8.3906-13.406 11.25-15.328 10.828-19.266 6.1406-21.141 3.9375-1.0781-1.2656-0.046875-10.312 15.281-24.422l0.23438-0.23438c0.51562-0.51562 51.75-50.344 79.312-71.109 27.891-21.141 122.16-83.812 140.63-94.078z"/>
  <path d="m710.16 731.44c26.812-24.797 26.484-45.469 17.25-56.578-4.3125-5.1562-11.906-11.344-23.25-11.391 3.2344-14.719 0.14062-28.172-9.6094-36-14.391-11.531-32.016-2.3438-50.438 14.719-1.0781-3.1875-2.8125-5.9531-5.25-8.1094-2.6719-2.3906-7.4531-5.0156-15.047-3.9844-17.109 2.25-39.984 21.75-58.312 49.641-20.109 30.562-76.125 82.219-89.625 94.453-11.203 0.75-23.109 1.2656-35.719 1.4062 19.641-13.266 36.562-30.422 44.156-49.828 6.0938-15.656 5.3438-31.125-2.25-44.766-1.5938-2.9062-4.3594-4.9688-7.5938-5.7188s-6.6094-0.09375-9.375 1.7812c-3.2344 2.25-6.75 4.9688-10.453 7.8281-17.109 13.219-40.5 31.359-75.75 36.094-47.438 6.375-111.09 30.984-134.44 79.312-19.406 40.125-27.609 49.031-72.938 79.219-25.547 17.062-56.391 35.438-79.781 49.031-17.016-11.344-36.047-14.156-53.297-7.5469-19.969 7.6406-34.031 27-37.641 51.844-6.9844 47.766 31.594 129.05 90.047 158.26 12.75 6.375 25.594 9.5156 37.5 9.5156 16.266 0 30.75-5.8594 40.734-17.391 12.047-13.875 18.281-38.156 2.5781-66.844 68.203-61.312 122.11-103.78 145.03-114.19 24.844-11.297 69.562-19.734 105.52-26.531 34.125-6.4688 53.859-10.359 63.094-15.469 19.594-10.875 114.42-73.875 143.48-95.859 28.312-21.375 78.047-69.656 81.375-72.891zm-82.453-36.891 0.046875-0.046875c1.3125-1.5 2.625-3 3.8906-4.5 35.25-41.344 46.031-44.109 48.281-44.109 3.2812 2.8594 3 16.078-6.9375 30.047-4.5469 3.3281-9.2812 7.3125-14.391 12.188-13.688 13.078-39.375 30.984-73.922 51.703 14.672-14.531 30.094-30.469 43.031-45.281zm-42.609-1.9219c14.672-22.359 29.016-33.422 36.844-37.453-1.0312 6-4.5 15.562-11.812 23.906-31.219 35.719-78.844 79.688-89.953 89.812-1.6875 0.32812-3.4219 0.60938-5.1562 0.9375 23.016-22.031 54.984-54.281 70.078-77.203zm-483.74 417.52c-47.812-23.906-83.062-94.781-77.344-133.92 2.4375-16.547 10.734-28.688 22.875-33.328 6.375-2.4375 13.406-2.5312 20.391-0.375-0.1875 0.09375-0.32812 0.1875-0.46875 0.28125-3.2344 0.09375-6.375 0.75-9.375 1.875-12.094 4.6406-20.438 16.781-22.875 33.328-5.7188 39.094 29.531 110.02 77.344 133.92 4.5938 2.2969 9.1875 4.0312 13.594 5.2031-7.5-0.51562-15.75-2.7656-24.141-6.9844zm372.61-230.39c-6.375 3.5625-32.766 8.5312-56.062 12.938-37.172 7.0312-83.438 15.797-110.86 28.219-35.859 16.266-114.56 85.078-158.29 124.69-5.2969 4.7812-9.5156 8.6719-12.375 11.25-10.172-1.7812-34.5-8.4844-48.703-32.766-14.672-25.078-10.219-51.891-7.7812-61.781 3.7031-2.0625 9.6094-5.3906 16.922-9.6094 24.281-13.969 59.203-34.594 87.75-53.672 45.656-30.422 58.594-42.234 81-88.5 18.094-37.406 71.531-60.234 116.44-66.281 38.438-5.1562 64.781-23.719 82.875-37.594-0.1875 3.375-0.98438 6.9375-2.4375 10.641-8.6719 22.219-38.344 45.703-72.609 57.609-6.0938-0.23438-11.391-0.46875-16.547-0.75-6.4688-0.375-12 4.5938-12.328 11.062-0.375 6.4688 4.5938 12 11.062 12.328 5.8125 0.32813 11.812 0.60938 18.844 0.84375h0.5625c33.469 1.2656 63.797 0.89063 90.141-1.0781 17.484-1.3125 33-3.3281 46.078-6h0.046875c0.046875 0 0.09375 0 0.1875-0.046876 19.922-3.9844 28.734-8.2031 31.5-9.8438l2.2969-1.3125c54.469-30.469 93.609-56.438 113.16-75.094 4.8281-4.5938 9.3281-8.3906 13.453-11.25 15.375-10.828 19.266-6.1406 21.141-3.9375 1.0781 1.3125 0.046875 10.312-15.281 24.422-0.09375 0.09375-0.14062 0.14062-0.23438 0.23437-0.51562 0.51563-51.75 50.344-79.312 71.109-27.891 21.234-122.16 83.906-140.63 94.172z"/>
  <path d="m148.03 539.53c6.1875 6.1875 14.344 9.5625 23.062 9.5625s16.922-3.375 23.062-9.5625l262.36-262.36 26.484 26.484c8.1094 8.1094 15.656 9.7969 20.578 9.7969 9.1406 0 20.672-6.4219 23.203-24.469l22.969-163.6c1.4531-10.312-1.1719-19.875-7.3125-26.953-7.0781-8.1562-18.094-11.953-29.953-10.312l-163.6 22.969c-11.906 1.6875-20.391 7.6875-23.344 16.547-2.9531 8.8125 0.23438 18.75 8.7188 27.234l26.531 26.531-262.4 262.36c-12.703 12.75-12.703 33.422 0 46.172zm200.34-404.21c0.79688-0.32812 2.0156-0.70312 3.7969-0.9375l163.6-22.969c0.75-0.09375 1.5-0.14062 2.2031-0.14062 2.0625 0 4.875 0.46875 6.7969 2.625l-73.172 66.234zm-233.39 325.03 270.66-270.66c2.2031-2.2031 3.4219-5.1562 3.4219-8.2969 0-3.0938-1.2188-6.0938-3.4219-8.2969l35.062 35.484-253.74 263.06 4.125 53.906c-2.3906 0-4.7812-0.84375-6.5156-2.625l-49.594-49.594c-3.6094-3.5625-3.6094-9.4219 0-12.984z"/>
  <path d="m1162.9 491.06h-155.29c-20.484 0-37.125 16.641-37.125 37.125v155.29c0 7.5469-6.1406 13.688-13.688 13.688h-155.29c-20.484 0-37.125 16.641-37.125 37.125v155.29c0 7.5469-6.1406 13.688-13.688 13.688h-155.29c-20.484 0-37.125 16.641-37.125 37.125v155.29c0 20.484 16.641 37.125 37.125 37.125h567.47c20.484 0 37.125-16.641 37.125-37.125l0.046874-567.52c0-20.438-16.641-37.125-37.125-37.125zm-579.52 442.82c-0.32812 0.60938-0.60938 1.2656-0.89062 1.9688 0.28125-0.70312 0.5625-1.3594 0.89062-1.9688zm1.1719-1.7812c-0.375 0.46875-0.70312 0.98438-0.98438 1.5469 0.28125-0.51562 0.60938-1.0312 0.98438-1.5469zm83.906 83.906-83.906-83.906c2.4844-3.2812 6.4219-5.3906 10.875-5.3906h155.29c10.781 0 20.484-4.6406 27.281-12.047l101.34 101.34zm214.45-188.68-94.969-94.969c0.9375-6.6562 6.6562-11.766 13.547-11.766h155.29c10.781 0 20.438-4.6406 27.234-12l118.73 118.73zm293.68-214.45h-99.141l-83.531-83.531v-1.125c0-7.5469 6.1406-13.688 13.688-13.688h155.29c7.5469 0 13.688 6.1406 13.688 13.688z"/>
 </g>
</svg>
